<svg t="1702199610980" class="icon" viewBox="0 0 1024 1024" version="1.1" xmlns="http://www.w3.org/2000/svg" p-id="2974" width="200" height="200"><path d="M365.714286 343.771429m-43.885715 0a43.885714 43.885714 0 1 0 87.771429 0 43.885714 43.885714 0 1 0-87.771429 0Z" fill="#1296db" p-id="2975"></path><path d="M681.098971 343.771429m-43.885714 0a43.885714 43.885714 0 1 0 87.771429 0 43.885714 43.885714 0 1 0-87.771429 0Z" fill="#1296db" p-id="2976"></path><path d="M795.582171 568.846629A291.679086 291.679086 0 0 0 819.2 453.485714c0-161.579886-130.984229-292.571429-292.571429-292.571428-161.572571 0-292.571429 130.991543-292.571428 292.571428a291.218286 291.218286 0 0 0 38.970514 145.985829 764.540343 764.540343 0 0 0-59.0848 43.776C180.297143 587.9296 160.914286 522.971429 160.914286 453.485714c0-201.976686 163.7376-365.714286 365.714285-365.714285 201.984 0 365.714286 163.7376 365.714286 365.714285a364.251429 364.251429 0 0 1-35.254857 156.862172 520.586971 520.586971 0 0 0-61.505829-41.501257z" fill="#1296db" p-id="2977"></path><path d="M219.355429 711.855543c14.357943 1.316571 29.622857 6.312229 43.944228 17.7664l0.950857 0.760686 0.9216 0.804571c47.915886 41.728 111.294171 69.697829 171.278629 87.135086 60.123429 17.488457 111.264914 22.820571 130.413714 22.820571H643.657143c7.314286 0 15.140571-11.044571 15.140571-11.044571l24.817372-10.181486c67.006171-27.487086 107.885714-53.248 135.087543-74.613029 4.498286-3.540114 26.090057-15.067429 29.7472-23.617828 3.657143-8.543086-26.587429 2.428343-29.7472-4.885943-3.167086-7.314286 4.1472-10.971429 11.461485-18.285714s24.458971-21.438171 25.6-22.857143c-20.955429-17.941943-65.031314-42.971429-96.994743-61.110857-47.733029-27.092114-103.738514-52.553143-163.569371-77.933715-53.0944-22.528-72.001829-15.586743-75.029943-14.218971-3.803429 1.718857-7.153371 5.039543-14.350628 19.434057l-13.194972 26.382629-29.059657 5.083428c-48.201143 8.440686-98.801371 32.036571-144.010971 60.408686-44.887771 28.174629-80.757029 58.704457-98.984229 76.931657l-1.221486 1.221486z m680.616228 38.4a519.533714 519.533714 0 0 1-17.568914 17.371428c-32.241371 30.281143-81.802971 67.547429-176.566857 106.430172-1.792 5.346743-45.253486 31.531886-84.2752 47.242971a275.551086 275.551086 0 0 1-7.584915 2.940343c-19.872914 7.387429-37.741714 11.395657-47.118628 7.621486-8.418743-3.393829-9.984-13.063314 0-32.2048-13.151086 0-34.516114-1.6896-60.920686-5.880686-76.375771-12.105143-194.947657-45.092571-279.186286-118.462171-18.285714-14.628571-51.2 3.657143-62.171428 21.942857-2.223543 3.693714-7.285029 9.493943-13.897143 15.989028a266.890971 266.890971 0 0 1-15.4112 13.970286 223.634286 223.634286 0 0 1-20.648229 15.520914c-20.143543 13.2096-37.756343 18.117486-34.157714-5.251657 2.311314-15.067429 6.100114-23.157029 9.728-30.902857 1.631086-3.488914 3.232914-6.904686 4.651886-10.861714 1.404343-3.920457 2.633143-8.374857 3.540114-13.948343 2.552686-15.681829 2.530743-40.250514-3.298743-86.915657-0.585143-3.759543-1.1264-7.387429-1.653028-10.876343-1.243429-8.316343-2.318629-15.872-3.247543-22.725486-1.952914-14.511543-3.203657-25.856-3.766857-34.530743-1.901714-28.986514 3.7888-28.174629 15.981714-15.981714 2.1504 2.1504 4.461714 4.512914 6.904686 7.007086 7.072914 7.226514 15.272229 15.608686 24.1664 23.544686a204.741486 204.741486 0 0 0 14.687085 12.024685c10.013257 7.3728 20.523886 13.312 31.041829 15.945143 42.671543-42.671543 157.257143-133.12 274.285714-153.6 14.628571-29.257143 44.119771-84.0192 164.571429-32.914286 114.234514 48.457143 221.908114 100.191086 282.719086 164.512915A250.375314 250.375314 0 0 1 910.628571 658.285714c0.533943 0.533943 1.067886 1.089829 1.5872 1.667657 3.518171 3.905829 6.319543 8.850286 3.496229 15.703772a21.109029 21.109029 0 0 1-1.192229 2.421028c-3.152457 5.5296-9.837714 12.214857-22.176914 20.436115-17.408 11.607771-8.060343 12.127086 6.261029 9.384228 0.848457-0.160914 1.718857-0.336457 2.603885-0.519314 6.714514-1.404343 14.189714-3.386514 20.392229-5.207771 10.057143-2.238171 23.800686-0.987429 5.741714 19.514514l-1.1264 1.258057c-1.367771 1.506743-2.903771 3.115886-4.615314 4.827429-1.901714 1.901714-3.832686 3.876571-5.800229 5.924571-2.135771 2.216229-4.315429 4.512914-6.568228 6.882743-2.947657 3.101257-6.012343 6.326857-9.259886 9.6768z m-325.302857 124.591543s0.146286-0.021943 0.424229-0.036572c-0.292571 0.036571-0.424229 0.036571-0.424229 0.036572z" fill="#1296db" p-id="2978"></path><path d="M660.267886 589.385143a3.657143 3.657143 0 0 1 1.258057 4.776228C647.314286 632.685714 625.371429 720.457143 661.525943 802.889143a3.657143 3.657143 0 0 1-6.356114 3.598628C625.342171 757.767314 607.093029 731.428571 610.750171 687.542857s25.709714-72.835657 44.6464-97.323886a3.657143 3.657143 0 0 1 4.871315-0.833828z" fill="#1296db" p-id="2979"></path><path d="M749.714286 665.6m-29.257143 0a29.257143 29.257143 0 1 0 58.514286 0 29.257143 29.257143 0 1 0-58.514286 0Z" fill="#1296db" p-id="2980"></path></svg>