<svg viewBox="0 0 40 30" fill="none" xmlns="http://www.w3.org/2000/svg">
<g clip-path="url(#clip0_213_3)">
<mask id="mask0_213_3" style="mask-type:luminance" maskUnits="userSpaceOnUse" x="0" y="0" width="40" height="31">
<path d="M39.2185 15.8619V9.07776C39.2185 9.07545 39.2185 9.07545 39.2185 9.07315C39.2185 7.62172 38.0463 6.44489 36.5995 6.43335C36.5926 6.43335 36.5856 6.43335 36.581 6.43335C36.581 6.43335 36.581 6.43335 36.5787 6.43335C35.7642 6.4195 34.6266 6.23259 33.8189 5.42266C33.1013 4.70502 32.8659 3.50742 32.8036 2.50826L32.8013 2.51288C32.799 2.4898 32.799 2.46442 32.7967 2.44135C32.7944 2.42519 32.7967 2.40904 32.7944 2.39289C32.6583 1.06145 31.5345 0.0230713 30.1685 0.0230713H9.05469C8.96469 0.0230713 8.87701 0.0276863 8.78702 0.0369164C8.75702 0.0392239 8.72702 0.0461464 8.69702 0.0507615C8.64164 0.057684 8.58626 0.0646066 8.53088 0.0761441C8.49165 0.0830667 8.45473 0.0946042 8.41781 0.103834C8.37166 0.115372 8.32551 0.124602 8.28167 0.138447C8.24244 0.149985 8.20783 0.16383 8.1686 0.177675C8.12476 0.193827 8.08092 0.207673 8.03707 0.226133C8.00246 0.239978 7.96785 0.258438 7.93324 0.27459C7.88939 0.295358 7.84555 0.313818 7.80171 0.336893C7.7694 0.355353 7.7371 0.373814 7.7071 0.392274C7.66556 0.417656 7.62172 0.440732 7.58019 0.468422C7.54557 0.491497 7.51327 0.51688 7.48096 0.542262C7.44635 0.567645 7.40943 0.593028 7.37482 0.623025C7.31713 0.669176 7.26406 0.719941 7.21329 0.770706C7.20406 0.779936 7.19252 0.789166 7.18329 0.798396C7.17406 0.807626 7.16714 0.816856 7.16022 0.823779C7.10715 0.876852 7.05638 0.932232 7.00792 0.98992C6.98023 1.02223 6.95716 1.05915 6.93177 1.09145C6.90639 1.12606 6.8787 1.16068 6.85563 1.19529C6.83024 1.23452 6.80717 1.27605 6.78179 1.31528C6.76102 1.34989 6.74025 1.3822 6.72179 1.41681C6.70102 1.45835 6.68256 1.49988 6.6618 1.54142C6.64333 1.57834 6.62718 1.61526 6.61103 1.65218C6.59488 1.6914 6.58103 1.73294 6.56719 1.77448C6.55334 1.81601 6.53719 1.85524 6.52334 1.89677C6.51181 1.93831 6.50258 1.97984 6.49104 2.01907C6.4795 2.06061 6.46796 2.10445 6.46104 2.14599C6.45181 2.19444 6.4472 2.24059 6.44027 2.28905C6.43566 2.32597 6.42643 2.36289 6.42412 2.40212C6.41951 2.43904 6.41951 2.47596 6.4172 2.51288L6.41489 2.51057C6.3549 3.50742 6.11722 4.70733 5.39958 5.42496C4.58965 6.2349 3.45435 6.42181 2.6398 6.43566C2.6398 6.43566 2.6398 6.43566 2.63749 6.43566C2.63057 6.43566 2.62595 6.43566 2.61903 6.43566C2.53827 6.43566 2.4575 6.44027 2.37905 6.44719C2.33982 6.45181 2.30059 6.45873 2.26136 6.46565C2.21521 6.47258 2.16906 6.47719 2.12522 6.48642C2.07907 6.49565 2.03523 6.50719 1.99139 6.51873C1.95216 6.52796 1.91293 6.53719 1.8737 6.54872C1.82986 6.56257 1.78832 6.57872 1.74448 6.59257C1.70525 6.60641 1.66603 6.61795 1.62911 6.6341C1.58988 6.65025 1.55296 6.67102 1.51373 6.68948C1.4745 6.70794 1.43527 6.72409 1.39605 6.74486C1.35913 6.76563 1.32221 6.78871 1.28759 6.80947C1.25067 6.83255 1.21375 6.85332 1.17683 6.87639C1.1353 6.90408 1.09838 6.93408 1.05915 6.96408C1.02915 6.98715 0.999154 7.00792 0.971464 7.03099C0.83532 7.14176 0.713022 7.26636 0.602261 7.4002C0.579186 7.42789 0.558419 7.46019 0.535343 7.48788C0.505346 7.52711 0.475348 7.56634 0.447658 7.60787C0.422275 7.64479 0.401508 7.68171 0.38074 7.71863C0.359972 7.75555 0.336897 7.79017 0.31613 7.82939C0.295362 7.86862 0.279209 7.90785 0.260749 7.94708C0.242289 7.98631 0.223829 8.02553 0.205369 8.06476C0.189216 8.10399 0.177679 8.14091 0.163834 8.18014C0.147681 8.22398 0.131528 8.26551 0.119991 8.30936C0.108453 8.34859 0.0992231 8.38781 0.0899931 8.42704C0.0784555 8.47088 0.0669179 8.51473 0.0576879 8.56088C0.0415353 8.60241 0.0369202 8.64856 0.0299977 8.69471C0.0253827 8.73394 0.0161526 8.77317 0.0138451 8.8124C0.00461502 8.89777 0 8.98546 0 9.07315V15.8549C0 15.8572 0 15.8572 0 15.8595C0 17.311 1.17222 18.4878 2.61903 18.4993C2.62595 18.4993 2.63287 18.4993 2.63749 18.4993C3.45204 18.5132 4.58965 18.7001 5.39728 19.51C6.10107 20.2138 6.34105 21.3768 6.40797 22.3621V29.1116C6.40797 29.9677 7.48558 30.3438 8.01861 29.6769L11.8329 24.9073H30.1592C30.1615 24.9073 30.1615 24.9073 30.1638 24.9073C31.5714 24.9073 32.7183 23.8043 32.7967 22.4175L32.799 22.4221C32.859 21.4253 33.0967 20.2254 33.8143 19.5077C34.6243 18.6978 35.7596 18.5109 36.5741 18.497C36.5741 18.497 36.5741 18.497 36.5764 18.497C36.5833 18.497 36.5903 18.497 36.5949 18.497C36.6664 18.497 36.7379 18.4924 36.8095 18.4855C36.821 18.4855 36.8349 18.4855 36.8464 18.4832C38.1801 18.3517 39.2185 17.2279 39.2185 15.8619ZM32.9282 18.6216C32.1068 19.4431 30.9415 19.6231 30.1223 19.6323H9.09622C8.27706 19.6231 7.10945 19.4454 6.29029 18.6216C5.62341 17.9548 5.36728 16.7964 5.27959 15.7719V9.16545C5.36497 8.14091 5.62111 6.98023 6.29029 6.31336C7.11176 5.49188 8.27706 5.3119 9.09622 5.30267H30.1223C30.9415 5.3119 32.1091 5.48957 32.9282 6.31336C33.5974 6.98254 33.8512 8.1386 33.9389 9.16314V15.7672C33.8536 16.7941 33.5974 17.9525 32.9282 18.6216Z" fill="white"/>
</mask>
<g mask="url(#mask0_213_3)">
<path d="M39.5162 -6.70563H-0.36228V33.1728H39.5162V-6.70563Z" fill="url(#paint0_linear_213_3)"/>
</g>
<mask id="mask1_213_3" style="mask-type:luminance" maskUnits="userSpaceOnUse" x="11" y="8" width="6" height="9">
<path d="M13.7643 8.46857C12.306 8.46857 11.1245 9.65001 11.1245 11.1084V13.7482C11.1245 15.2065 12.306 16.388 13.7643 16.388C15.2227 16.388 16.4041 15.2065 16.4041 13.7482V11.1084C16.4041 9.65001 15.2227 8.46857 13.7643 8.46857Z" fill="white"/>
</mask>
<g mask="url(#mask1_213_3)">
<path d="M39.5162 -6.70566H-0.36228V33.1728H39.5162V-6.70566Z" fill="url(#paint1_linear_213_3)"/>
</g>
<mask id="mask2_213_3" style="mask-type:luminance" maskUnits="userSpaceOnUse" x="22" y="8" width="7" height="9">
<path d="M25.4542 8.46857C23.9958 8.46857 22.8144 9.65001 22.8144 11.1084V13.7482C22.8144 15.2065 23.9958 16.388 25.4542 16.388C26.9125 16.388 28.094 15.2065 28.094 13.7482V11.1084C28.094 9.65001 26.9125 8.46857 25.4542 8.46857Z" fill="white"/>
</mask>
<g mask="url(#mask2_213_3)">
<path d="M39.5162 -6.70566H-0.36228V33.1728H39.5162V-6.70566Z" fill="url(#paint2_linear_213_3)"/>
</g>
</g>
<defs>
<linearGradient id="paint0_linear_213_3" x1="3.05109" y1="35.1139" x2="36.25" y2="-8.84511" gradientUnits="userSpaceOnUse">
<stop offset="0.0319" stop-color="#FF46D7"/>
<stop offset="0.1565" stop-color="#E658FE"/>
<stop offset="0.3012" stop-color="#C040FF"/>
<stop offset="0.5414" stop-color="#A143EF"/>
<stop offset="0.755" stop-color="#6344CD"/>
<stop offset="0.8505" stop-color="#4747BB"/>
<stop offset="0.984" stop-color="#4786C9"/>
</linearGradient>
<linearGradient id="paint1_linear_213_3" x1="3.05109" y1="35.1139" x2="36.25" y2="-8.84514" gradientUnits="userSpaceOnUse">
<stop offset="0.0319" stop-color="#FF46D7"/>
<stop offset="0.1565" stop-color="#E658FE"/>
<stop offset="0.3012" stop-color="#C040FF"/>
<stop offset="0.5414" stop-color="#A143EF"/>
<stop offset="0.755" stop-color="#6344CD"/>
<stop offset="0.8505" stop-color="#4747BB"/>
<stop offset="0.984" stop-color="#4786C9"/>
</linearGradient>
<linearGradient id="paint2_linear_213_3" x1="3.05109" y1="35.1139" x2="36.25" y2="-8.84514" gradientUnits="userSpaceOnUse">
<stop offset="0.0319" stop-color="#FF46D7"/>
<stop offset="0.1565" stop-color="#E658FE"/>
<stop offset="0.3012" stop-color="#C040FF"/>
<stop offset="0.5414" stop-color="#A143EF"/>
<stop offset="0.755" stop-color="#6344CD"/>
<stop offset="0.8505" stop-color="#4747BB"/>
<stop offset="0.984" stop-color="#4786C9"/>
</linearGradient>
<clipPath id="clip0_213_3">
<rect width="39.22" height="30" fill="white"/>
</clipPath>
</defs>
</svg>